<svg xmlns="http://www.w3.org/2000/svg" version="1.1" xmlns:xlink="http://www.w3.org/1999/xlink" xmlns:svgjs="http://svgjs.dev/svgjs" width="100%" height="100%" viewBox="0 0 1000 600"><rect width="1000" height="600" x="0" y="0" fill="#FF"/><g><circle r="166.66666666666666" cx="279.0316263834635" cy="301.2538756142526" fill="#FF" transform="matrix(1.112446445182273,0,0,1.112446445182273,0,-35.12877625772637)"/><path d="M248.61338323818399 373.10340859680946L248.61338323818399 356.6721211167869L260.64488795496084 356.6721211167869L249.18372544823438 323.8367053096013L193.53462123903398 323.8367053096013L182.3450502609029 356.6721211167869L197.25542518079112 356.6721211167869L197.25542518079112 373.10340859680946L150.27009073378446 373.10340859680946L150.27009073378446 356.6721211167869L162.87193766061168 356.6721211167869L207.95613140745047 228.34512385545364L236.12017292279495 228.34512385545364L281.09573005819556 356.6721211167869L295.59871768519065 356.6721211167869L295.59871768519065 373.10340859680946L248.61338323818399 373.10340859680946ZM221.12832054432806 243.25549877534186L198.96645181094226 307.9757600396291L243.6432582648879 307.9757600396291L221.12832054432806 243.25549877534186ZM384.3819883830316 267.6987363489292Q384.3819883830316 259.2793989624713 381.340163262763 255.09688942210192Q378.2711789896348 250.88722072887302 374.60469335359676 248.6330110415311Q370.9382077175586 246.4059605070487 366.5384249543129 245.21095778122884Q362.1386421910672 244.01595505540902 357.766018580681 244.01595505540902L357.766018580681 244.01595505540902Q350.4873656143239 244.01595505540902 345.0555350424156 245.67266337984105Q339.62370447050733 247.35653085713264 336.0386962930479 250.2082419073845Q332.4536881155884 253.0871121104959 330.6340248739991 256.88939351083167Q328.8143616324098 260.718834064027 328.8143616324098 264.92850275725596L328.8143616324098 264.92850275725596Q328.8143616324098 271.22942622066955 331.06857131975175 275.08602592672446Q333.32278100709374 278.96978478563886 336.74483426739596 281.30547193155945Q340.1940466805577 283.64115907748 344.34939706806756 284.97195756759754Q348.5047474555774 286.30275605771504 352.3070288559132 287.6607137006921L352.3070288559132 287.6607137006921L371.5900273861876 293.96163716410575Q380.28095630124085 296.7047116029194 386.93494875182853 300.26256062751935Q393.56178204955665 303.7932504992597 398.04304227138095 308.60042055539856Q402.52430249320537 313.43474976439694 404.8871487919854 319.7356732278106Q407.222835937906 326.0365966912242 407.222835937906 334.34729746624384L407.222835937906 334.34729746624384Q407.222835937906 343.30981790989256 403.52919114900834 350.9415398634237Q399.86270551297025 358.6004209698143 393.2630313681017 364.2223656117394Q386.69051637609266 369.8443102536645 377.56504101528674 373.04909029109035Q368.4395656544808 376.2538703285163 357.57590451066426 376.2538703285163L357.57590451066426 376.2538703285163Q346.3863335325332 376.2538703285163 338.45586089754704 373.7280691125789Q330.5525474154205 371.2022678966416 325.1478759963718 366.9382808976936Q319.743204577323 362.7014530516051 316.5112653870376 357.2424633268373Q313.2521670438926 351.810632754929 311.4596629551629 346.0800515015658L311.4596629551629 346.0800515015658L304.1810099888058 346.0800515015658L304.1810099888058 329.6487640215432L328.2440194223595 329.6487640215432Q328.2440194223595 340.26799278962386 330.49822910970136 344.64061640001006Q332.7524387970434 349.04039916325576 336.74483426739596 351.9464285192267Q340.7643888906081 354.87961702805717 346.3048560739545 356.3462112824724Q351.84532325730095 357.81280553688765 358.5264748607482 357.81280553688765L358.5264748607482 357.81280553688765Q365.0175123941786 357.81280553688765 370.204910590351 356.29189297675333Q375.41946793938297 354.770980416619 379.08595357542106 351.8649510606481Q382.77959836431864 348.95892170467715 384.7350573702057 344.8035713171673Q386.69051637609266 340.64822092965744 386.69051637609266 335.3793452749064L386.69051637609266 335.3793452749064Q386.69051637609266 329.56728656296457 384.24619261873386 325.49341363403335Q381.8290280142347 321.4466998579617 377.99958746103937 318.5949888077098Q374.170146907844 315.7161186045985 369.63456838030066 313.8964553630092Q365.0989898527572 312.10395127427944 360.9164803123878 310.7459936313023L360.9164803123878 310.7459936313023L340.0039326105409 304.8252983079223Q333.1326669370769 302.73404353773765 327.4292448365733 299.47494519459264Q321.75298188892907 296.24300600430723 317.7062681128574 291.5716317124661Q313.6323951839262 286.87309826776544 311.4596629551629 280.6264931100709Q309.25977157354 274.37988795237635 309.25977157354 266.1506646359353L309.25977157354 266.1506646359353Q309.25977157354 257.86712301377514 312.49171076382544 250.58847004741807Q315.75080910697045 243.3369762339205 322.05173257038405 237.90514566201222Q328.35265603379764 232.44615593724438 337.47813139460357 229.35001251125666Q346.57644760254993 226.25386908526895 358.3363607907314 226.25386908526895L358.3363607907314 226.25386908526895Q366.0495602028411 226.25386908526895 372.5949160419906 228.0735323268582Q379.14027188114017 229.89319556844748 384.43630668875073 233.179453064452Q389.7323414963613 236.4657105604565 393.8062144252925 241.1099256994381Q397.8529282013642 245.72698168556013 400.6231617930374 251.2674488689066L400.6231617930374 251.2674488689066L407.7931781479564 251.2674488689066L407.7931781479564 267.6987363489292L384.3819883830316 267.6987363489292Z " fill="white" transform="matrix(1.112446445182273,0,0,1.112446445182273,0,-35.12877625772637)"/><path d="M627.3749188827152 373.10340859680946L627.3749188827152 356.6721211167869L639.4064235994921 356.6721211167869L627.9452610927656 323.8367053096013L572.2961568835651 323.8367053096013L561.1065859054341 356.6721211167869L576.0169608253224 356.6721211167869L576.0169608253224 373.10340859680946L529.0316263783157 373.10340859680946L529.0316263783157 356.6721211167869L541.6334733051428 356.6721211167869L586.7176670519817 228.34512385545364L614.8817085673261 228.34512385545364L659.8572657027267 356.6721211167869L674.3602533297219 356.6721211167869L674.3602533297219 373.10340859680946L627.3749188827152 373.10340859680946ZM599.8898561888593 243.25549877534186L577.7279874554735 307.9757600396291L622.4047939094191 307.9757600396291L599.8898561888593 243.25549877534186ZM763.1435240275629 267.6987363489292Q763.1435240275629 259.2793989624713 760.1016989072942 255.09688942210192Q757.032714634166 250.88722072887302 753.366228998128 248.6330110415311Q749.6997433620899 246.4059605070487 745.2999605988441 245.21095778122884Q740.9001778355985 244.01595505540902 736.5275542252123 244.01595505540902L736.5275542252123 244.01595505540902Q729.2489012588551 244.01595505540902 723.8170706869469 245.67266337984105Q718.3852401150385 247.35653085713264 714.8002319375792 250.2082419073845Q711.2152237601197 253.0871121104959 709.3955605185304 256.88939351083167Q707.5758972769411 260.718834064027 707.5758972769411 264.92850275725596L707.5758972769411 264.92850275725596Q707.5758972769411 271.22942622066955 709.830106964283 275.08602592672446Q712.0843166516249 278.96978478563886 715.5063699119272 281.30547193155945Q718.9555823250889 283.64115907748 723.1109327125988 284.97195756759754Q727.2662831001086 286.30275605771504 731.0685645004444 287.6607137006921L731.0685645004444 287.6607137006921L750.3515630307188 293.96163716410575Q759.0424919457721 296.7047116029194 765.6964843963598 300.26256062751935Q772.3233176940878 303.7932504992597 776.8045779159122 308.60042055539856Q781.2858381377366 313.43474976439694 783.6486844365166 319.7356732278106Q785.9843715824372 326.0365966912242 785.9843715824372 334.34729746624384L785.9843715824372 334.34729746624384Q785.9843715824372 343.30981790989256 782.2907267935395 350.9415398634237Q778.6242411575015 358.6004209698143 772.0245670126328 364.2223656117394Q765.4520520206239 369.8443102536645 756.326576659818 373.04909029109035Q747.2011012990121 376.2538703285163 736.3374401551955 376.2538703285163L736.3374401551955 376.2538703285163Q725.1478691770644 376.2538703285163 717.2173965420783 373.7280691125789Q709.3140830599517 371.2022678966416 703.909411640903 366.9382808976936Q698.5047402218543 362.7014530516051 695.2728010315689 357.2424633268373Q692.0137026884238 351.810632754929 690.2211985996942 346.0800515015658L690.2211985996942 346.0800515015658L682.942545633337 346.0800515015658L682.942545633337 329.6487640215432L707.0055550668907 329.6487640215432Q707.0055550668907 340.26799278962386 709.2597647542326 344.64061640001006Q711.5139744415746 349.04039916325576 715.5063699119272 351.9464285192267Q719.5259245351392 354.87961702805717 725.0663917184858 356.3462112824724Q730.6068589018322 357.81280553688765 737.2880105052794 357.81280553688765L737.2880105052794 357.81280553688765Q743.7790480387098 357.81280553688765 748.9664462348823 356.29189297675333Q754.1810035839142 354.770980416619 757.8474892199522 351.8649510606481Q761.5411340088499 348.95892170467715 763.496593014737 344.8035713171673Q765.4520520206239 340.64822092965744 765.4520520206239 335.3793452749064L765.4520520206239 335.3793452749064Q765.4520520206239 329.56728656296457 763.0077282632651 325.49341363403335Q760.590563658766 321.4466998579617 756.7611231055706 318.5949888077098Q752.9316825523753 315.7161186045985 748.3961040248319 313.8964553630092Q743.8605254972884 312.10395127427944 739.678015956919 310.7459936313023L739.678015956919 310.7459936313023L718.7654682550722 304.8252983079223Q711.8942025816082 302.73404353773765 706.1907804811044 299.47494519459264Q700.5145175334603 296.24300600430723 696.4678037573887 291.5716317124661Q692.3939308284574 286.87309826776544 690.2211985996942 280.6264931100709Q688.0213072180712 274.37988795237635 688.0213072180712 266.1506646359353L688.0213072180712 266.1506646359353Q688.0213072180712 257.86712301377514 691.2532464083566 250.58847004741807Q694.5123447515016 243.3369762339205 700.8132682149153 237.90514566201222Q707.1141916783289 232.44615593724438 716.2396670391348 229.35001251125666Q725.3379832470812 226.25386908526895 737.0978964352626 226.25386908526895L737.0978964352626 226.25386908526895Q744.8110958473724 226.25386908526895 751.3564516865218 228.0735323268582Q757.9018075256714 229.89319556844748 763.1978423332819 233.179453064452Q768.4938771408926 236.4657105604565 772.5677500698237 241.1099256994381Q776.6144638458954 245.72698168556013 779.3846974375687 251.2674488689066L779.3846974375687 251.2674488689066L786.5547137924875 251.2674488689066L786.5547137924875 267.6987363489292L763.1435240275629 267.6987363489292Z " fill="#ffffff" transform="matrix(1.112446445182273,0,0,1.112446445182273,0,-35.12877625772637)"/></g></svg>